:FULLY-SPECIFIED
:FORCE-ALL-JOINTS-BE-3DOF
:DEGREES
645
root 5.57613 16.4076 -2.75668 14.7882 12.8829 -0.841452
lfemur -17.0306 24.4579 -27.8655
ltibia 36.6182 0 0
lfoot -36.9306 15.5298 0
ltoes 22.7652 0 0
rfemur -60.0609 -27.6489 33.0105
rtibia 68.6234 0 0
rfoot -4.43661 2.07568 0
rtoes -1.95572 0 0
lowerback -0.0784381 -3.98428 -5.26674
upperback -1.64271 -5.34392 0.112503
thorax -1.15926 -2.6094 3.07733
lowerneck -9.75529 -7.35608 -0.267797
upperneck 5.87358 -10.2845 6.18668
head 3.90227 -4.82741 1.40023
lclavicle -3.55664e-14 -4.62976e-15 0
lhumerus -39.5168 -65.8605 120.669
lradius 70.8087 0 0
lwrist 23.9374 0 0
lhand -6.46592 2.48588 0
lfingers 7.12502 0 0
lthumb 19.3827 31.5173 0
rclavicle -3.55664e-14 -4.62976e-15 0
rhumerus -28.8628 -4.09143 -74.6183
rradius 70.5773 0 0
rwrist -25.6338 0 0
rhand -29.6045 -43.496 0
rfingers 7.12502 0 0
rthumb -2.93546 -793.455 0
646
root 5.56838 16.3879 -2.71128 15.2157 11.873 -0.668555
lfemur -17.0836 24.4887 -28.0163
ltibia 36.6635 0 0
lfoot -36.9568 15.0685 0
ltoes 22.4216 0 0
rfemur -60.4367 -28.0224 33.48
rtibia 68.5319 0 0
rfoot -4.995 1.21607 0
rtoes -1.2494 0 0
lowerback -0.151681 -3.99129 -5.35466
upperback -1.66646 -5.3524 0.0382652
thorax -1.14127 -2.61298 3.04519
lowerneck -9.74689 -7.3482 -0.311455
upperneck 5.47974 -10.2658 6.35822
head 3.79945 -4.82148 1.47394
lclavicle -3.59095e-14 -5.10428e-15 0
lhumerus -40.234 -66.6117 121.574
lradius 71.1433 0 0
lwrist 24.0831 0 0
lhand -6.24723 2.66584 0
lfingers 7.12502 0 0
lthumb 19.5931 31.6783 0
rclavicle -3.59095e-14 -5.10428e-15 0
rhumerus -30.6905 -4.31033 -74.8902
rradius 69.1139 0 0
rwrist -24.2932 0 0
rhand -29.5717 -44.1637 0
rfingers 7.12502 0 0
rthumb -2.90384 -794.123 0
647
root 5.56062 16.3682 -2.66588 15.6432 10.8631 -0.495657
lfemur -17.1366 24.5196 -28.1671
ltibia 36.7087 0 0
lfoot -36.983 14.6071 0
ltoes 22.0779 0 0
rfemur -60.8125 -28.3958 33.9496
rtibia 68.4405 0 0
rfoot -5.55339 0.356457 0
rtoes -0.543089 0 0
lowerback -0.224924 -3.99831 -5.44258
upperback -1.69021 -5.36087 -0.035973
thorax -1.12328 -2.61655 3.01306
lowerneck -9.73849 -7.34032 -0.355113
upperneck 5.0859 -10.2471 6.52976
head 3.69662 -4.81555 1.54765
lclavicle -3.62526e-14 -5.5788e-15 0
lhumerus -40.9511 -67.363 122.48
lradius 71.4778 0 0
lwrist 24.2288 0 0
lhand -6.02853 2.84579 0
lfingers 7.12502 0 0
lthumb 19.8036 31.8394 0
rclavicle -3.62526e-14 -5.5788e-15 0
rhumerus -32.5183 -4.52923 -75.1621
rradius 67.6506 0 0
rwrist -22.9527 0 0
rhand -29.539 -44.8314 0
rfingers 7.12502 0 0
rthumb -2.87223 -794.791 0
648
root 5.55286 16.3485 -2.62048 16.0707 9.85321 -0.32276
lfemur -17.1896 24.5504 -28.3179
ltibia 36.754 0 0
lfoot -37.0092 14.1458 0
ltoes 21.7342 0 0
rfemur -61.1883 -28.7693 34.4191
rtibia 68.349 0 0
rfoot -6.11178 -0.503153 0
rtoes 0.163227 0 0
lowerback -0.298167 -4.00532 -5.5305
upperback -1.71396 -5.36935 -0.110211
thorax -1.10529 -2.62013 2.98092
lowerneck -9.73008 -7.33244 -0.398771
upperneck 4.69206 -10.2284 6.7013
head 3.59379 -4.80962 1.62136
lclavicle -3.65956e-14 -6.05332e-15 0
lhumerus -41.6682 -68.1142 123.386
lradius 71.8123 0 0
lwrist 24.3745 0 0
lhand -5.80984 3.02574 0
lfingers 7.12502 0 0
lthumb 20.014 32.0004 0
rclavicle -3.65956e-14 -6.05332e-15 0
rhumerus -34.3461 -4.74814 -75.434
rradius 66.1873 0 0
rwrist -21.6121 0 0
rhand -29.5063 -45.4991 0
rfingers 7.12502 0 0
rthumb -2.84061 -795.459 0
649
root 5.5451 16.3287 -2.57509 16.4982 8.84332 -0.149862
lfemur -17.2426 24.5812 -28.4687
ltibia 36.7993 0 0
lfoot -37.0354 13.6845 0
ltoes 21.3905 0 0
rfemur -61.564 -29.1427 34.8887
rtibia 68.2576 0 0
rfoot -6.67017 -1.36276 0
rtoes 0.869543 0 0
lowerback -0.371409 -4.01233 -5.61842
upperback -1.73771 -5.37782 -0.184449
thorax -1.08729 -2.62371 2.94879
lowerneck -9.72168 -7.32457 -0.442429
upperneck 4.29823 -10.2098 6.87283
head 3.49096 -4.80369 1.69507
lclavicle -3.69387e-14 -6.52783e-15 0
lhumerus -42.3853 -68.8655 124.292
lradius 72.1469 0 0
lwrist 24.5202 0 0
lhand -5.59114 3.2057 0
lfingers 7.12502 0 0
lthumb 20.2245 32.1615 0
rclavicle -3.69387e-14 -6.52783e-15 0
rhumerus -36.1739 -4.96704 -75.7059
rradius 64.724 0 0
rwrist -20.2715 0 0
rhand -29.4735 -46.1667 0
rfingers 7.12502 0 0
rthumb -2.80899 -796.128 0
650
root 5.53735 16.309 -2.52969 16.9257 7.83342 0.0230352
lfemur -17.2957 24.612 -28.6195
ltibia 36.8446 0 0
lfoot -37.0616 13.2232 0
ltoes 21.0469 0 0
rfemur -61.9398 -29.5162 35.3582
rtibia 68.1661 0 0
rfoot -7.22855 -2.22237 0
rtoes 1.57586 0 0
lowerback -0.444652 -4.01934 -5.70633
upperback -1.76147 -5.3863 -0.258688
thorax -1.0693 -2.62729 2.91665
lowerneck -9.71328 -7.31669 -0.486088
upperneck 3.90439 -10.1911 7.04437
head 3.38814 -4.79776 1.76879
lclavicle -3.72818e-14 -7.00235e-15 0
lhumerus -43.1025 -69.6167 125.197
lradius 72.4814 0 0
lwrist 24.6659 0 0
lhand -5.37245 3.38565 0
lfingers 7.12502 0 0
lthumb 20.4349 32.3225 0
rclavicle -3.72818e-14 -7.00235e-15 0
rhumerus -38.0016 -5.18594 -75.9778
rradius 63.2606 0 0
rwrist -18.9309 0 0
rhand -29.4408 -46.8344 0
rfingers 7.12502 0 0
rthumb -2.77737 -796.796 0
651
root 5.52959 16.2893 -2.48429 17.3532 6.82353 0.195933
lfemur -17.3487 24.6429 -28.7703
ltibia 36.8898 0 0
lfoot -37.0878 12.7619 0
ltoes 20.7032 0 0
rfemur -62.3156 -29.8896 35.8278
rtibia 68.0747 0 0
rfoot -7.78694 -3.08198 0
rtoes 2.28217 0 0
lowerback -0.517895 -4.02636 -5.79425
upperback -1.78522 -5.39477 -0.332926
thorax -1.05131 -2.63086 2.88452
lowerneck -9.70487 -7.30881 -0.529746
upperneck 3.51055 -10.1724 7.21591
head 3.28531 -4.79183 1.8425
lclavicle -3.76248e-14 -7.47687e-15 0
lhumerus -43.8196 -70.368 126.103
lradius 72.816 0 0
lwrist 24.8116 0 0
lhand -5.15375 3.56561 0
lfingers 7.12502 0 0
lthumb 20.6454 32.4836 0
rclavicle -3.76248e-14 -7.47687e-15 0
rhumerus -39.8294 -5.40485 -76.2497
rradius 61.7973 0 0
rwrist -17.5903 0 0
rhand -29.408 -47.5021 0
rfingers 7.12502 0 0
rthumb -2.74576 -797.464 0
652
root 5.52183 16.2696 -2.43889 17.7807 5.81363 0.36883
lfemur -17.4017 24.6737 -28.9211
ltibia 36.9351 0 0
lfoot -37.114 12.3006 0
ltoes 20.3595 0 0
rfemur -62.6914 -30.2631 36.2973
rtibia 67.9832 0 0
rfoot -8.34533 -3.94159 0
rtoes 2.98849 0 0
lowerback -0.591138 -4.03337 -5.88217
upperback -1.80897 -5.40325 -0.407164
thorax -1.03332 -2.63444 2.85238
lowerneck -9.69647 -7.30093 -0.573404
upperneck 3.11671 -10.1537 7.38745
head 3.18248 -4.7859 1.91621
lclavicle -3.79679e-14 -7.95139e-15 0
lhumerus -44.5367 -71.1192 127.009
lradius 73.1505 0 0
lwrist 24.9573 0 0
lhand -4.93506 3.74556 0
lfingers 7.12502 0 0
lthumb 20.8558 32.6446 0
rclavicle -3.79679e-14 -7.95139e-15 0
rhumerus -41.6572 -5.62375 -76.5216
rradius 60.334 0 0
rwrist -16.2497 0 0
rhand -29.3753 -48.1698 0
rfingers 7.12502 0 0
rthumb -2.71414 -798.132 0
653
root 5.51547 16.2731 -2.31342 17.6833 4.7006 0.360835
lfemur -18.2073 24.7284 -27.9429
ltibia 39.6839 0 0
lfoot -35.1934 11.1705 0
ltoes 20.1697 0 0
rfemur -61.7131 -29.5676 35.8913
rtibia 67.5649 0 0
rfoot -8.8286 -3.9532 0
rtoes 2.94432 0 0
lowerback -0.506329 -4.11677 -5.70435
upperback -1.8073 -5.51427 -0.382483
thorax -1.09124 -2.69152 2.79123
lowerneck -9.65265 -7.18201 -0.535749
upperneck 3.1141 -9.98853 7.23281
head 3.15918 -4.70949 1.87023
lclavicle -3.96191e-14 -8.36178e-15 0
lhumerus -42.2597 -70.5293 124.06
lradius 73.791 0 0
lwrist 25.1675 0 0
lhand -5.28283 3.56517 0
lfingers 7.12502 0 0
lthumb 20.5209 32.4907 0
rclavicle -3.96191e-14 -8.36178e-15 0
rhumerus -41.7221 -5.67099 -75.2775
rradius 61.1963 0 0
rwrist -16.3442 0 0
rhand -29.3032 -48.0974 0
rfingers 7.12502 0 0
rthumb -2.64451 -798.06 0
654
root 5.50911 16.2766 -2.18795 17.586 3.58757 0.352839
lfemur -19.0129 24.7831 -26.9648
ltibia 42.4326 0 0
lfoot -33.2729 10.0404 0
ltoes 19.9798 0 0
rfemur -60.7347 -28.8721 35.4853
rtibia 67.1467 0 0
rfoot -9.31187 -3.9648 0
rtoes 2.90014 0 0
lowerback -0.42152 -4.20018 -5.52653
upperback -1.80563 -5.62529 -0.357802
thorax -1.14915 -2.7486 2.73008
lowerneck -9.60883 -7.06308 -0.498093
upperneck 3.1115 -9.82336 7.07817
head 3.13588 -4.63308 1.82426
lclavicle -4.12703e-14 -8.77218e-15 0
lhumerus -39.9826 -69.9394 121.11
lradius 74.4315 0 0
lwrist 25.3776 0 0
lhand -5.63059 3.38477 0
lfingers 7.12502 0 0
lthumb 20.186 32.3367 0
rclavicle -4.12703e-14 -8.77218e-15 0
rhumerus -41.7869 -5.71824 -74.0333
rradius 62.0586 0 0
rwrist -16.4387 0 0
rhand -29.2311 -48.025 0
rfingers 7.12502 0 0
rthumb -2.57487 -797.988 0
655
root 5.50275 16.2801 -2.06248 17.4886 2.47454 0.344844
lfemur -19.8185 24.8378 -25.9866
ltibia 45.1814 0 0
lfoot -31.3523 8.91031 0
ltoes 19.79 0 0
rfemur -59.7564 -28.1766 35.0793
rtibia 66.7284 0 0
rfoot -9.79514 -3.97641 0
rtoes 2.85597 0 0
lowerback -0.336711 -4.28358 -5.3487
upperback -1.80396 -5.73631 -0.333121
thorax -1.20707 -2.80568 2.66892
lowerneck -9.56501 -6.94416 -0.460438
upperneck 3.10889 -9.65819 6.92353
head 3.11259 -4.55667 1.77828
lclavicle -4.29215e-14 -9.18257e-15 0
lhumerus -37.7056 -69.3496 118.161
lradius 75.072 0 0
lwrist 25.5878 0 0
lhand -5.97836 3.20438 0
lfingers 7.12502 0 0
lthumb 19.8511 32.1828 0
rclavicle -4.29215e-14 -9.18257e-15 0
rhumerus -41.8518 -5.76548 -72.7892
rradius 62.9208 0 0
rwrist -16.5332 0 0
rhand -29.159 -47.9526 0
rfingers 7.12502 0 0
rthumb -2.50524 -797.916 0
656
root 5.49639 16.2836 -1.93701 17.3913 1.36151 0.336848
lfemur -20.6241 24.8925 -25.0085
ltibia 47.9302 0 0
lfoot -29.4317 7.78021 0
ltoes 19.6002 0 0
rfemur -58.778 -27.481 34.6733
rtibia 66.3101 0 0
rfoot -10.2784 -3.98801 0
rtoes 2.81179 0 0
lowerback -0.251902 -4.36698 -5.17088
upperback -1.8023 -5.84733 -0.30844
thorax -1.26499 -2.86276 2.60777
lowerneck -9.52119 -6.82524 -0.422782
upperneck 3.10628 -9.49302 6.76888
head 3.08929 -4.48026 1.73231
lclavicle -4.45727e-14 -9.59297e-15 0
lhumerus -35.4285 -68.7597 115.212
lradius 75.7125 0 0
lwrist 25.798 0 0
lhand -6.32612 3.02398 0
lfingers 7.12502 0 0
lthumb 19.5163 32.0288 0
rclavicle -4.45727e-14 -9.59297e-15 0
rhumerus -41.9166 -5.81273 -71.5451
rradius 63.7831 0 0
rwrist -16.6278 0 0
rhand -29.0869 -47.8801 0
rfingers 7.12502 0 0
rthumb -2.4356 -797.845 0
